<?xml version="1.0" encoding="UTF-8" standalone="no"?>
<!-- Created with Inkscape (http://www.inkscape.org/) -->

<svg
   xmlns:dc="http://purl.org/dc/elements/1.1/"
   xmlns:cc="http://creativecommons.org/ns#"
   xmlns:rdf="http://www.w3.org/1999/02/22-rdf-syntax-ns#"
   xmlns:svg="http://www.w3.org/2000/svg"
   xmlns="http://www.w3.org/2000/svg"
   xmlns:sodipodi="http://sodipodi.sourceforge.net/DTD/sodipodi-0.dtd"
   xmlns:inkscape="http://www.inkscape.org/namespaces/inkscape"
   width="565.8327"
   height="565.8327"
   viewBox="0 0 149.7099 149.7099"
   version="1.1"
   id="svg8"
   inkscape:version="0.92.5 (2060ec1f9f, 2020-04-08)"
   sodipodi:docname="bdtsim_logo.svg">
  <defs
     id="defs2">
    <marker
       inkscape:stockid="Arrow2Send"
       orient="auto"
       refY="0"
       refX="0"
       id="Arrow2Send"
       style="overflow:visible"
       inkscape:isstock="true">
      <path
         id="path1071"
         style="fill:#ff1500;fill-opacity:1;fill-rule:evenodd;stroke:#ff1500;stroke-width:0.625;stroke-linejoin:round;stroke-opacity:1"
         d="M 8.7185878,4.0337352 -2.2072895,0.01601326 8.7185884,-4.0017078 c -1.7454984,2.3720609 -1.7354408,5.6174519 -6e-7,8.035443 z"
         transform="matrix(-0.3,0,0,-0.3,0.69,0)"
         inkscape:connector-curvature="0" />
    </marker>
    <marker
       inkscape:stockid="Arrow1Send"
       orient="auto"
       refY="0"
       refX="0"
       id="marker1420"
       style="overflow:visible"
       inkscape:isstock="true">
      <path
         id="path1418"
         d="M 0,0 5,-5 -12.5,0 5,5 Z"
         style="fill:#000000;fill-opacity:1;fill-rule:evenodd;stroke:#000000;stroke-width:1.00000003pt;stroke-opacity:1"
         transform="matrix(-0.2,0,0,-0.2,-1.2,0)"
         inkscape:connector-curvature="0" />
    </marker>
    <marker
       inkscape:stockid="Arrow2Mend"
       orient="auto"
       refY="0"
       refX="0"
       id="Arrow2Mend"
       style="overflow:visible"
       inkscape:isstock="true">
      <path
         id="path1065"
         style="fill:#000000;fill-opacity:1;fill-rule:evenodd;stroke:#000000;stroke-width:0.625;stroke-linejoin:round;stroke-opacity:1"
         d="M 8.7185878,4.0337352 -2.2072895,0.01601326 8.7185884,-4.0017078 c -1.7454984,2.3720609 -1.7354408,5.6174519 -6e-7,8.035443 z"
         transform="scale(-0.6)"
         inkscape:connector-curvature="0" />
    </marker>
    <marker
       inkscape:stockid="Arrow1Send"
       orient="auto"
       refY="0"
       refX="0"
       id="Arrow1Send"
       style="overflow:visible"
       inkscape:isstock="true">
      <path
         id="path1053"
         d="M 0,0 5,-5 -12.5,0 5,5 Z"
         style="fill:#000000;fill-opacity:1;fill-rule:evenodd;stroke:#000000;stroke-width:1.00000003pt;stroke-opacity:1"
         transform="matrix(-0.2,0,0,-0.2,-1.2,0)"
         inkscape:connector-curvature="0" />
    </marker>
    <marker
       inkscape:stockid="Arrow2Lend"
       orient="auto"
       refY="0"
       refX="0"
       id="marker1322"
       style="overflow:visible"
       inkscape:isstock="true">
      <path
         id="path1320"
         style="fill:#000000;fill-opacity:1;fill-rule:evenodd;stroke:#000000;stroke-width:0.625;stroke-linejoin:round;stroke-opacity:1"
         d="M 8.7185878,4.0337352 -2.2072895,0.01601326 8.7185884,-4.0017078 c -1.7454984,2.3720609 -1.7354408,5.6174519 -6e-7,8.035443 z"
         transform="matrix(-1.1,0,0,-1.1,-1.1,0)"
         inkscape:connector-curvature="0" />
    </marker>
    <marker
       inkscape:stockid="Arrow2Lend"
       orient="auto"
       refY="0"
       refX="0"
       id="Arrow2Lend"
       style="overflow:visible"
       inkscape:isstock="true">
      <path
         id="path1059"
         style="fill:#000000;fill-opacity:1;fill-rule:evenodd;stroke:#000000;stroke-width:0.625;stroke-linejoin:round;stroke-opacity:1"
         d="M 8.7185878,4.0337352 -2.2072895,0.01601326 8.7185884,-4.0017078 c -1.7454984,2.3720609 -1.7354408,5.6174519 -6e-7,8.035443 z"
         transform="matrix(-1.1,0,0,-1.1,-1.1,0)"
         inkscape:connector-curvature="0" />
    </marker>
    <marker
       inkscape:stockid="Arrow2Send"
       orient="auto"
       refY="0"
       refX="0"
       id="Arrow2Send-8"
       style="overflow:visible"
       inkscape:isstock="true">
      <path
         inkscape:connector-curvature="0"
         id="path1071-7"
         style="fill:#000000;fill-opacity:1;fill-rule:evenodd;stroke:#000000;stroke-width:0.625;stroke-linejoin:round;stroke-opacity:1"
         d="M 8.7185878,4.0337352 -2.2072895,0.01601326 8.7185884,-4.0017078 c -1.7454984,2.3720609 -1.7354408,5.6174519 -6e-7,8.035443 z"
         transform="matrix(-0.3,0,0,-0.3,0.69,0)" />
    </marker>
    <marker
       inkscape:stockid="Arrow2Send"
       orient="auto"
       refY="0"
       refX="0"
       id="Arrow2Send-3"
       style="overflow:visible"
       inkscape:isstock="true">
      <path
         inkscape:connector-curvature="0"
         id="path1071-3"
         style="fill:#00da00;fill-opacity:1;fill-rule:evenodd;stroke:#00da00;stroke-width:0.625;stroke-linejoin:round;stroke-opacity:1"
         d="M 8.7185878,4.0337352 -2.2072895,0.01601326 8.7185884,-4.0017078 c -1.7454984,2.3720609 -1.7354408,5.6174519 -6e-7,8.035443 z"
         transform="matrix(-0.3,0,0,-0.3,0.69,0)" />
    </marker>
    <marker
       inkscape:stockid="Arrow2Send"
       orient="auto"
       refY="0"
       refX="0"
       id="Arrow2Send-3-0"
       style="overflow:visible"
       inkscape:isstock="true">
      <path
         inkscape:connector-curvature="0"
         id="path1071-3-9"
         style="fill:#00da00;fill-opacity:1;fill-rule:evenodd;stroke:#00da00;stroke-width:0.625;stroke-linejoin:round;stroke-opacity:1"
         d="M 8.7185878,4.0337352 -2.2072895,0.01601326 8.7185884,-4.0017078 c -1.7454984,2.3720609 -1.7354408,5.6174519 -6e-7,8.035443 z"
         transform="matrix(-0.3,0,0,-0.3,0.69,0)" />
    </marker>
    <marker
       inkscape:stockid="Arrow2Send"
       orient="auto"
       refY="0"
       refX="0"
       id="Arrow2Send-6"
       style="overflow:visible"
       inkscape:isstock="true">
      <path
         inkscape:connector-curvature="0"
         id="path1071-72"
         style="fill:#ff1500;fill-opacity:1;fill-rule:evenodd;stroke:#ff1500;stroke-width:0.625;stroke-linejoin:round;stroke-opacity:1"
         d="M 8.7185878,4.0337352 -2.2072895,0.01601326 8.7185884,-4.0017078 c -1.7454984,2.3720609 -1.7354408,5.6174519 -6e-7,8.035443 z"
         transform="matrix(-0.3,0,0,-0.3,0.69,0)" />
    </marker>
  </defs>
  <sodipodi:namedview
     id="base"
     pagecolor="#ffffff"
     bordercolor="#666666"
     borderopacity="1.0"
     inkscape:pageopacity="0.0"
     inkscape:pageshadow="2"
     inkscape:zoom="0.35"
     inkscape:cx="463.29718"
     inkscape:cy="506.87746"
     inkscape:document-units="mm"
     inkscape:current-layer="layer1"
     showgrid="false"
     showguides="true"
     inkscape:guide-bbox="true"
     inkscape:window-width="1848"
     inkscape:window-height="1016"
     inkscape:window-x="72"
     inkscape:window-y="27"
     inkscape:window-maximized="1"
     units="px">
    <sodipodi:guide
       position="-172.27749,221.31866"
       orientation="1,0"
       id="guide3302"
       inkscape:locked="false" />
    <sodipodi:guide
       position="-77.396803,214.63692"
       orientation="1,0"
       id="guide3304"
       inkscape:locked="false" />
    <sodipodi:guide
       position="-264.43532,-19.737158"
       orientation="1,0"
       id="guide3875"
       inkscape:locked="false" />
  </sodipodi:namedview>
  <metadata
     id="metadata5">
    <rdf:RDF>
      <cc:Work
         rdf:about="">
        <dc:format>image/svg+xml</dc:format>
        <dc:type
           rdf:resource="http://purl.org/dc/dcmitype/StillImage" />
        <dc:title></dc:title>
      </cc:Work>
    </rdf:RDF>
  </metadata>
  <g
     inkscape:label="Calque 1"
     inkscape:groupmode="layer"
     id="layer1"
     transform="translate(-30.090099,-133.41158)">
    <g
       id="g3996"
       transform="translate(361.49129,-144.24057)"
       style="fill:#f80000;fill-opacity:1;stroke:none;stroke-opacity:1">
      <path
         sodipodi:nodetypes="ccccccccccscsscc"
         inkscape:connector-curvature="0"
         id="path3696-8-6"
         d="m -283.13447,389.66137 v -5.27753 l 14.00201,8.08406 14.002,8.08406 v -7.26494 -7.26494 l -13.9972,-8.08129 -13.99718,-8.08127 -0.0617,-5.21583 -0.0617,-5.21584 -9.84694,3.08804 c -5.41582,1.69843 -9.84072,3.16886 -9.83312,3.26762 0.008,0.0989 2.18475,3.35033 4.8381,7.2257 2.65335,3.87538 7.10386,10.39493 9.89003,14.48792 l 5.06577,7.44181 z"
         style="fill:#f80000;fill-opacity:1;stroke:none;stroke-width:0.24524908;stroke-opacity:1" />
      <path
         sodipodi:nodetypes="cccccc"
         inkscape:connector-curvature="0"
         id="path3696-6-9-9"
         d="m -227.11685,384.3783 -28.01361,16.17366 v -7.26494 -7.26494 l 28.00401,-16.16812 z"
         style="fill:#f80000;fill-opacity:1;stroke:none;stroke-width:0.34689409;stroke-opacity:1" />
    </g>
    <g
       id="g3992"
       transform="translate(440.89271,-149.67094)"
       style="fill:#00c300;fill-opacity:1">
      <path
         sodipodi:nodetypes="ccccccccccscsscc"
         inkscape:connector-curvature="0"
         id="path3696-8-3"
         d="m -306.51824,380.56743 v -5.27754 l -14.00201,8.08406 -14.002,8.08406 v -7.26494 -7.26494 l 13.9972,-8.08129 13.99718,-8.08127 0.0617,-5.21583 0.0617,-5.21584 9.84694,3.08804 c 5.41582,1.69843 9.84072,3.16886 9.83312,3.26762 -0.008,0.0989 -2.18475,3.35033 -4.8381,7.2257 -2.65335,3.87538 -7.10386,10.39493 -9.89003,14.48793 l -5.06577,7.44181 z"
         style="fill:#00c300;fill-opacity:1;stroke-width:0.24524908" />
      <path
         sodipodi:nodetypes="cccccc"
         inkscape:connector-curvature="0"
         id="path3696-6-9-8"
         d="m -334.51265,391.46355 -28.01361,-16.17366 v -7.26494 -7.26494 l 28.00401,16.16812 z"
         style="fill:#00c300;fill-opacity:1;stroke-width:0.34689409" />
    </g>
    <path
       style="fill:none;stroke:#000000;stroke-width:4;stroke-linecap:butt;stroke-linejoin:miter;stroke-miterlimit:4;stroke-dasharray:none;stroke-opacity:1"
       d="M 164.74284,174.69056 106.32939,207.9844"
       id="path832-8-2-0"
       inkscape:connector-curvature="0"
       sodipodi:nodetypes="cc" />
    <path
       style="fill:none;stroke:#000000;stroke-width:4;stroke-linecap:butt;stroke-linejoin:miter;stroke-miterlimit:4;stroke-dasharray:none;stroke-opacity:1"
       d="m 47.915906,174.69054 v 67.23258 l 58.413484,33.29387 58.41345,-33.29384 v -67.23259 l -58.41347,-33.29387 -58.413464,33.29385 58.413484,33.29386 v 67.23259"
       id="path832-9-3-9"
       inkscape:connector-curvature="0"
       sodipodi:nodetypes="ccccccccc" />
    <path
       style="opacity:1;fill:#030000;fill-opacity:1;fill-rule:nonzero;stroke:#000000;stroke-width:2.74815702;stroke-miterlimit:4;stroke-dasharray:none;stroke-dashoffset:0;stroke-opacity:1"
       id="path960-20-53"
       sodipodi:type="arc"
       sodipodi:cx="47.644295"
       sodipodi:cy="174.48784"
       sodipodi:rx="6.1271296"
       sodipodi:ry="6.130177"
       sodipodi:start="5.0243666"
       sodipodi:end="5.0191655"
       sodipodi:open="true"
       d="m 49.524964,168.65358 a 6.1271296,6.130177 0 0 1 3.953135,7.70828 6.1271296,6.130177 0 0 1 -7.699303,3.96512 6.1271296,6.130177 0 0 1 -3.973156,-7.69797 6.1271296,6.130177 0 0 1 7.68897,-3.98514" />
    <path
       style="opacity:1;fill:#030000;fill-opacity:1;fill-rule:nonzero;stroke:#000000;stroke-width:2.74815702;stroke-miterlimit:4;stroke-dasharray:none;stroke-dashoffset:0;stroke-opacity:1"
       id="path960-20-8-8"
       sodipodi:type="arc"
       sodipodi:cx="106.63338"
       sodipodi:cy="140.91461"
       sodipodi:rx="6.1271296"
       sodipodi:ry="6.1301775"
       sodipodi:start="5.0243666"
       sodipodi:end="5.0191655"
       sodipodi:open="true"
       d="m 108.51405,135.08035 a 6.1271296,6.1301775 0 0 1 3.95313,7.70828 6.1271296,6.1301775 0 0 1 -7.6993,3.96512 6.1271296,6.1301775 0 0 1 -3.97316,-7.69797 6.1271296,6.1301775 0 0 1 7.68897,-3.98514" />
    <path
       style="opacity:1;fill:#030000;fill-opacity:1;fill-rule:nonzero;stroke:#000000;stroke-width:2.74815702;stroke-miterlimit:4;stroke-dasharray:none;stroke-dashoffset:0;stroke-opacity:1"
       id="path960-20-2-9"
       sodipodi:type="arc"
       sodipodi:cx="106.09882"
       sodipodi:cy="207.73199"
       sodipodi:rx="6.1271296"
       sodipodi:ry="6.1301775"
       sodipodi:start="5.0243666"
       sodipodi:end="5.0191655"
       sodipodi:open="true"
       d="m 107.97949,201.89773 a 6.1271296,6.1301775 0 0 1 3.95314,7.70828 6.1271296,6.1301775 0 0 1 -7.69931,3.96512 6.1271296,6.1301775 0 0 1 -3.97315,-7.69797 6.1271296,6.1301775 0 0 1 7.68897,-3.98514" />
    <path
       style="opacity:1;fill:#030000;fill-opacity:1;fill-rule:nonzero;stroke:#000000;stroke-width:2.74815702;stroke-miterlimit:4;stroke-dasharray:none;stroke-dashoffset:0;stroke-opacity:1"
       id="path960-20-9-9"
       sodipodi:type="arc"
       sodipodi:cx="106.36613"
       sodipodi:cy="275.61847"
       sodipodi:rx="6.1271296"
       sodipodi:ry="6.1301775"
       sodipodi:start="5.0243666"
       sodipodi:end="5.0191655"
       sodipodi:open="true"
       d="m 108.2468,269.78421 a 6.1271296,6.1301775 0 0 1 3.95313,7.70828 6.1271296,6.1301775 0 0 1 -7.6993,3.96512 6.1271296,6.1301775 0 0 1 -3.97316,-7.69797 6.1271296,6.1301775 0 0 1 7.68897,-3.98514" />
    <path
       style="opacity:1;fill:#030000;fill-opacity:1;fill-rule:nonzero;stroke:#000000;stroke-width:2.74815702;stroke-miterlimit:4;stroke-dasharray:none;stroke-dashoffset:0;stroke-opacity:1"
       id="path960-20-95-7"
       sodipodi:type="arc"
       sodipodi:cx="47.834114"
       sodipodi:cy="241.9425"
       sodipodi:rx="6.1271296"
       sodipodi:ry="6.1301775"
       sodipodi:start="5.0243666"
       sodipodi:end="5.0191655"
       sodipodi:open="true"
       d="m 49.714784,236.10824 a 6.1271296,6.1301775 0 0 1 3.953134,7.70828 6.1271296,6.1301775 0 0 1 -7.699303,3.96512 6.1271296,6.1301775 0 0 1 -3.973156,-7.69797 6.1271296,6.1301775 0 0 1 7.68897,-3.98514" />
    <path
       style="opacity:1;fill:#030000;fill-opacity:1;fill-rule:nonzero;stroke:#000000;stroke-width:2.74815702;stroke-miterlimit:4;stroke-dasharray:none;stroke-dashoffset:0;stroke-opacity:1"
       id="path960-20-7-9"
       sodipodi:type="arc"
       sodipodi:cx="164.89801"
       sodipodi:cy="241.67523"
       sodipodi:rx="6.1271296"
       sodipodi:ry="6.1301775"
       sodipodi:start="5.0243666"
       sodipodi:end="5.0191655"
       sodipodi:open="true"
       d="m 166.77868,235.84097 a 6.1271296,6.1301775 0 0 1 3.95313,7.70828 6.1271296,6.1301775 0 0 1 -7.6993,3.96512 6.1271296,6.1301775 0 0 1 -3.97315,-7.69797 6.1271296,6.1301775 0 0 1 7.68897,-3.98514" />
    <path
       style="opacity:1;fill:#030000;fill-opacity:1;fill-rule:nonzero;stroke:#000000;stroke-width:2.74815702;stroke-miterlimit:4;stroke-dasharray:none;stroke-dashoffset:0;stroke-opacity:1"
       id="path960-20-5-1"
       sodipodi:type="arc"
       sodipodi:cx="164.36348"
       sodipodi:cy="173.78876"
       sodipodi:rx="6.1271296"
       sodipodi:ry="6.1301775"
       sodipodi:start="5.0243666"
       sodipodi:end="5.0191655"
       sodipodi:open="true"
       d="m 166.24415,167.95449 a 6.1271296,6.1301775 0 0 1 3.95313,7.70828 6.1271296,6.1301775 0 0 1 -7.6993,3.96512 6.1271296,6.1301775 0 0 1 -3.97316,-7.69797 6.1271296,6.1301775 0 0 1 7.68897,-3.98513" />
    <text
       xml:space="preserve"
       style="font-style:normal;font-variant:normal;font-weight:normal;font-stretch:normal;font-size:26.80690002px;line-height:1.25;font-family:Wingdings;-inkscape-font-specification:Wingdings;letter-spacing:0px;word-spacing:0px;fill:#000000;fill-opacity:1;stroke:none;stroke-width:0.13961926"
       x="67.143837"
       y="182.56395"
       id="text1021-2"><tspan
         sodipodi:role="line"
         id="tspan1019-9"
         x="67.143837"
         y="182.56395"
         style="font-style:normal;font-variant:normal;font-weight:normal;font-stretch:normal;font-family:Calibri;-inkscape-font-specification:Calibri;stroke-width:0.13961926">BDTsim</tspan></text>
  </g>
</svg>
